<svg xmlns="http://www.w3.org/2000/svg" width="50.325" height="44.441" viewBox="0 0 50.325 44.441">
  <path id="Path_419" data-name="Path 419" d="M44.183,40.52v-8.1a2.489,2.489,0,0,0-3.709-2.168,57.915,57.915,0,0,1-24.161,7.254c-.066,0-7.8.039-7.8.039A3.8,3.8,0,0,0,4.741,40.9H3.153A3.156,3.156,0,0,0,0,44.051v6.926A3.156,3.156,0,0,0,3.153,54.13H4.74a3.807,3.807,0,0,0,2.24,3.027l5.65,15.594a2.474,2.474,0,0,0,2.318,1.623h5.67a2.466,2.466,0,0,0,2.318-3.308L18.081,57.675a57.836,57.836,0,0,1,22.393,7.1,2.474,2.474,0,0,0,2.482-.024A2.463,2.463,0,0,0,44.183,62.6V54.5a7.05,7.05,0,0,0,0-13.983ZM4.713,51.7H3.153a.722.722,0,0,1-.721-.721V44.051a.722.722,0,0,1,.721-.721h1.56Zm3.242,3.231a1.368,1.368,0,0,1-.81-1.247V41.345h0a1.368,1.368,0,0,1,1.367-1.367H15.13v15.07s-6.676,0-6.7,0A1.275,1.275,0,0,1,7.955,54.929ZM20.65,71.9a.027.027,0,0,1,0,.032.028.028,0,0,1-.028.015h-5.67a.035.035,0,0,1-.032-.021L9.683,57.48h5.741Zm21.1-9.294a.044.044,0,0,1-.026.047.056.056,0,0,1-.065,0,60.273,60.273,0,0,0-24.1-7.466V39.844a60.289,60.289,0,0,0,24.1-7.467.057.057,0,0,1,.065,0,.044.044,0,0,1,.026.047Zm2.431-10.559V42.981a4.621,4.621,0,0,1,0,9.061Z" transform="translate(0 -29.933)" fill="#195ec8"/>
</svg>
