<svg xmlns="http://www.w3.org/2000/svg" width="43.392" height="36.604" viewBox="0 0 43.392 36.604">
  <path id="open-book" d="M42.413,37.808l-2.989-1.546a17.139,17.139,0,0,0-15.512,0l-2.319,1.185-2.268-1.185a17.139,17.139,0,0,0-15.512,0L.825,37.808A1.507,1.507,0,0,0,0,39.2V69.45a1.62,1.62,0,0,0,.721,1.34,1.544,1.544,0,0,0,1.495.051L5.2,69.3a13.873,13.873,0,0,1,12.729,0l2.989,1.546a.189.189,0,0,0,.155.051c.051,0,.1.051.155.051A2.231,2.231,0,0,0,21.49,71h.361a.465.465,0,0,0,.258-.051c.051,0,.1-.051.155-.051s.1-.051.155-.051L25.406,69.3a13.873,13.873,0,0,1,12.729,0l2.989,1.546a1.756,1.756,0,0,0,1.546-.052,1.494,1.494,0,0,0,.721-1.34V39.2A2.258,2.258,0,0,0,42.413,37.808ZM11.544,64.657a17.128,17.128,0,0,0-7.782,1.855l-.721.412v-26.8l2.164-1.134a13.873,13.873,0,0,1,12.729,0L20.1,40.127V66.873l-.721-.361A17.5,17.5,0,0,0,11.544,64.657Zm28.6,2.268-.721-.361a17.248,17.248,0,0,0-15.563,0l-.721.361v-26.8L25.3,38.993a13.873,13.873,0,0,1,12.729,0L40.2,40.127v26.8h-.052Z" transform="translate(0 -34.406)" fill="#195ec8"/>
</svg>
