<svg xmlns="http://www.w3.org/2000/svg" width="50.508" height="60" viewBox="0 0 50.508 60">
  <defs>
    <style>
      .cls-1 {
        fill: #fff;
      }
    </style>
  </defs>
  <path id="xzcvzxcvAsset_1" data-name="xzcvzxcvAsset 1" class="cls-1" d="M9.375,45.937H41.133a9.386,9.386,0,0,0,9.375-9.375V9.375A9.386,9.386,0,0,0,41.133,0H9.375A9.386,9.386,0,0,0,0,9.375v41.25A9.386,9.386,0,0,0,9.375,60H41.133a9.386,9.386,0,0,0,9.375-9.375,2.344,2.344,0,0,0-4.687,0,4.693,4.693,0,0,1-4.687,4.687H9.375a4.688,4.688,0,0,1,0-9.375ZM4.687,9.375A4.693,4.693,0,0,1,9.375,4.687H41.133A4.693,4.693,0,0,1,45.82,9.375V36.562a4.693,4.693,0,0,1-4.687,4.688H9.375a9.323,9.323,0,0,0-4.687,1.257ZM14.18,15.82a2.344,2.344,0,0,1,2.344-2.344H34.1a2.344,2.344,0,0,1,0,4.688H16.523A2.344,2.344,0,0,1,14.18,15.82Z"/>
</svg>
