<?xml version="1.0" encoding="utf-8"?>
<!-- Generator: Adobe Illustrator 23.0.2, SVG Export Plug-In . SVG Version: 6.00 Build 0)  -->
<svg version="1.1" id="Capa_1" xmlns="http://www.w3.org/2000/svg" xmlns:xlink="http://www.w3.org/1999/xlink" x="0px" y="0px"
	 viewBox="0 0 53 53" style="enable-background:new 0 0 53 53;" xml:space="preserve">
<circle fill="#E1E4EA" cx="26.6" cy="26.6" r="26"/>
<path fill="#929AB1" d="M18.6,40.9l-7.8,4.3c-0.5,0.3-0.9,0.6-1.3,0.9c4.6,3.9,10.5,6.2,17,6.2s12.3-2.3,16.9-6.1
	c-0.4-0.4-0.9-0.7-1.4-0.9l-8.4-4.2c-1.1-0.5-1.8-1.7-1.8-2.9v-3.3c0.2-0.3,0.5-0.6,0.8-1c1.2-1.6,2-3.4,2.6-5.3
	c1.1-0.3,1.9-1.3,1.9-2.5v-3.5c0-0.8-0.3-1.5-0.9-2v-5.3c0,0,1.1-7.9-9.7-7.9s-9.7,7.9-9.7,7.9v5.1c-0.5,0.5-0.9,1.2-0.9,2V26
	c0,0.9,0.5,1.8,1.2,2.2c0.9,3.9,3.2,6.6,3.2,6.6v3.2C20.3,39.2,19.6,40.3,18.6,40.9z"/>
</svg>
