<?xml version="1.0" encoding="utf-8"?>
<svg id="cardboard" xmlns="http://www.w3.org/2000/svg" width="378.705" height="277.428" viewBox="0 0 378.705 277.428">
  <path id="Path_420" d="M211.735,143.187l-86.989-23.3a6.6,6.6,0,1,0-3.419,12.749l86.989,23.3a6.679,6.679,0,0,0,1.709.224,6.6,6.6,0,0,0,1.71-12.973Z" transform="translate(-21.91 -73.153)" fill="#d7dae2"/>
  <path id="Path_421" d="M257.8,160.357a6.329,6.329,0,0,1,.759-1.01A7.613,7.613,0,0,0,257.8,160.357Z" transform="translate(-48.509 -80.622)" fill="#d7dae2"/>
  <path id="Path_422" d="M256.867,161.867a6.376,6.376,0,0,0-.284,1.082A6.709,6.709,0,0,1,256.867,161.867Z" transform="translate(-48.281 -81.097)" fill="#d7dae2"/>
  <path id="Path_423" d="M261.125,157.665a6.132,6.132,0,0,0-1.274.753A6.761,6.761,0,0,1,261.125,157.665Z" transform="translate(-48.896 -80.306)" fill="#d7dae2"/>
  <path id="Path_424" d="M221.59,346.421a6.6,6.6,0,0,1,4.118-8.374l8.73-2.976V161.655L230,163.193a6.509,6.509,0,0,1-8.717-6.44c0,.072-.04.139-.04.211V335.8L83.67,300.7V121.355l-3.221,1.056-9.977,8.975V305.819a6.606,6.606,0,0,0,4.969,6.395l150.775,38.473a6.557,6.557,0,0,0,1.63.2A6.589,6.589,0,0,1,221.59,346.421Z" transform="translate(-13.261 -73.474)" fill="#d7dae2"/>
  <path id="Path_425" d="M264.306,404.016a6.516,6.516,0,0,0,2.138-.356h-.007A6.506,6.506,0,0,1,264.306,404.016Z" transform="translate(-49.734 -126.595)" fill="#d7dae2"/>
  <path id="Path_426" d="M74.032,108.728a6.56,6.56,0,0,1,1.413-.818A6,6,0,0,0,74.032,108.728Z" transform="translate(-13.931 -70.944)" fill="#d7dae2"/>
  <path id="Path_427" d="M390.011,111.349c-.08-.139-.218-.218-.3-.343a6.523,6.523,0,0,1,1.168,3.286,6.6,6.6,0,0,1-4.428,6.573l-5.174,1.795,34.4,60.078L321.348,215.41l-26.363-38.017a6.6,6.6,0,0,0-10.849,7.53l29.214,42.128a6.621,6.621,0,0,0,5.425,2.837,6.442,6.442,0,0,0,2.158-.363l53.1-18.4v-9.272a6.6,6.6,0,1,1,13.2,0v4.7L427.514,192.6a6.605,6.605,0,0,0,3.563-9.522Z" transform="translate(-53.245 -71.526)" fill="#d7dae2"/>
  <path id="Path_428" d="M412.384,108.845a6.8,6.8,0,0,1,.607.528A7.347,7.347,0,0,0,412.384,108.845Z" transform="translate(-77.598 -71.12)" fill="#d7dae2"/>
  <path id="Path_429" d="M409.775,107.617c.2.053.369.165.561.231C410.138,107.782,409.973,107.67,409.775,107.617Z" transform="translate(-77.107 -70.888)" fill="#d7dae2"/>
  <path id="Path_430" d="M371.026,321.3,271.4,355.27v9.219a6.6,6.6,0,0,1-2.554,5.214,6.767,6.767,0,0,1-1.907,1.029l112.81-38.473a6.6,6.6,0,0,0,4.467-6.243V228.7l-13.2,4.573V321.3h.007Z" transform="translate(-50.23 -93.673)" fill="#d7dae2"/>
  <path id="Path_431" d="M269.374,393.833v-9.219l-8.73,2.976a6.6,6.6,0,0,0,2.125,12.848,6.506,6.506,0,0,0,2.132-.356h.007a6.437,6.437,0,0,0,1.907-1.029A6.623,6.623,0,0,0,269.374,393.833Z" transform="translate(-48.204 -123.011)" fill="#d7dae2"/>
  <path id="Path_432" d="M401.75,214.784a6.6,6.6,0,0,0-6.6,6.6v9.272l13.2-4.573v-4.7A6.6,6.6,0,0,0,401.75,214.784Z" transform="translate(-74.355 -91.054)" fill="#d7dae2"/>
  <path id="Path_433" d="M413.132,109.5a6.564,6.564,0,0,1,1.069,1.221A6.308,6.308,0,0,0,413.132,109.5Z" transform="translate(-77.739 -71.243)" fill="#d7dae2"/>
  <path id="Path_434" d="M60.1,108.918a6.2,6.2,0,0,0-.713.416l-57.2,51.452a6.6,6.6,0,0,0,4.415,11.5,6.873,6.873,0,0,0,2.3-.409l34.982-13.027a6.6,6.6,0,0,0-4.606-12.373l-2.474.924,20.4-18.352V114.235A6.425,6.425,0,0,1,60.1,108.918Z" transform="translate(0 -71.133)" fill="#d7dae2"/>
  <path id="Path_435" d="M410.466,107.9a6.31,6.31,0,0,1,1.557.766A6.536,6.536,0,0,0,410.466,107.9Z" transform="translate(-77.237 -70.942)" fill="#d7dae2"/>
  <path id="Path_436" d="M84.653,105.478v4.784L189.617,75.816l131.98,30.9-94.933,32.923c-.066.019-.112.08-.178.106a6.51,6.51,0,0,1,8.936,6.131v4.692L342.28,113.51l-2.719-4.744a6.58,6.58,0,0,1,7.358-9.654c-.046-.013-.08-.04-.125-.053L190.817,62.546a6.739,6.739,0,0,0-3.563.152L75.994,99.21c-.086.027-.145.1-.231.132a6.474,6.474,0,0,1,2.29-.462A6.593,6.593,0,0,1,84.653,105.478Z" transform="translate(-14.256 -62.375)" fill="#d7dae2"/>
  <path id="Path_437" d="M258.73,159.2a6.647,6.647,0,0,1,.911-.614A6.6,6.6,0,0,0,258.73,159.2Z" transform="translate(-48.685 -80.48)" fill="#d7dae2"/>
  <path id="Path_438" d="M256.226,164.626a6.041,6.041,0,0,1,.291-1.426A6.546,6.546,0,0,0,256.226,164.626Z" transform="translate(-48.214 -81.347)" fill="#d7dae2"/>
  <path id="Path_439" d="M257.633,160.591a6.4,6.4,0,0,0-.7,1.036A7.357,7.357,0,0,1,257.633,160.591Z" transform="translate(-48.347 -80.857)" fill="#d7dae2"/>
  <path id="Path_440" d="M83.654,118.715v-4.784a6.6,6.6,0,0,0-6.6-6.6,6.474,6.474,0,0,0-2.29.462,6.581,6.581,0,0,0-1.413.818,6.48,6.48,0,0,0-2.9,5.319v14.815l9.977-8.975Z" transform="translate(-13.258 -70.835)" fill="#d7dae2"/>
  <path id="Path_441" d="M262.786,157.088a6.535,6.535,0,0,0-2.336.468,6.288,6.288,0,0,0-1.274.753,7.129,7.129,0,0,0-.911.614,6.635,6.635,0,0,0-.759,1.01,6.843,6.843,0,0,0-.7,1.036,6.713,6.713,0,0,0-.284,1.082,6.479,6.479,0,0,0-.291,1.426,6.388,6.388,0,0,0,.323,2.369,6.585,6.585,0,0,0,8.394,4.071l4.434-1.538v-4.692A6.594,6.594,0,0,0,262.786,157.088Z" transform="translate(-48.214 -80.197)" fill="#d7dae2"/>
  <path id="Path_442" d="M402.957,108.215a6.606,6.606,0,0,0-2.448,9.008l2.719,4.744,5.174-1.795a6.6,6.6,0,0,0,4.428-6.573,6.536,6.536,0,0,0-1.168-3.286,6.336,6.336,0,0,0-1.069-1.221,5.7,5.7,0,0,0-.607-.528,6.592,6.592,0,0,0-1.557-.766c-.192-.066-.356-.178-.561-.231A6.576,6.576,0,0,0,402.957,108.215Z" transform="translate(-75.199 -70.84)" fill="#d7dae2"/>
</svg>
