<svg xmlns="http://www.w3.org/2000/svg" width="34.081" height="39.575" viewBox="0 0 34.081 39.575">
  <path id="Shape_1_copy" data-name="Shape 1 copy" d="M3160.236,1110.549a1.657,1.657,0,0,1-.725-1.692l1.964-10.161a17.031,17.031,0,1,1,13.424,6.574,16.76,16.76,0,0,1-4.816-.706l-8.008,5.917a1.712,1.712,0,0,1-.992.276A1.636,1.636,0,0,1,3160.236,1110.549Zm.9-22.333a13.759,13.759,0,0,0,3.328,8.971,1.647,1.647,0,0,1,.357,1.373l-1.316,6.806,5.329-3.925a1.62,1.62,0,0,1,1.518-.232,13.54,13.54,0,0,0,4.565.793,13.787,13.787,0,1,0-13.782-13.786Zm13.775,11.124a1.63,1.63,0,0,1-1.63-1.63v-.64a1.63,1.63,0,0,1,1.63-1.631h.01a1.63,1.63,0,0,1,1.63,1.631v.64a1.63,1.63,0,0,1-1.63,1.63Zm-1.628-7.073a6.877,6.877,0,0,1,3.356-5.84,3.252,3.252,0,0,0,1.538-2.822,3.307,3.307,0,0,0-3.211-3.21,3.253,3.253,0,0,0-3.3,3.258,1.635,1.635,0,0,1-3.27,0,6.513,6.513,0,0,1,1.945-4.649,6.435,6.435,0,0,1,4.574-1.885h.1a6.587,6.587,0,0,1,6.431,6.458,6.462,6.462,0,0,1-3.075,5.626,3.657,3.657,0,0,0-1.819,3.065,1.634,1.634,0,0,1-3.269,0Z" transform="translate(-3157.867 -1071.181)" fill="#fff"/>
</svg>
