<svg xmlns="http://www.w3.org/2000/svg" width="69.003" height="60" viewBox="0 0 69.003 60">
  <defs>
    <style>
      .cls-1 {
        fill: #fff;
      }
    </style>
  </defs>
  <path id="v45235vAsset_1" data-name="v45235vAsset 1" class="cls-1" d="M64.047,5.761A17.318,17.318,0,0,0,51,0C45.388,0,40.369,2.635,36.488,7.617A27.723,27.723,0,0,0,34.5,10.548a27.722,27.722,0,0,0-1.987-2.931C28.633,2.635,23.615,0,18,0A17.329,17.329,0,0,0,4.956,5.761,19.931,19.931,0,0,0,0,19.16c0,5.782,2.493,11.346,7.846,17.511,4.729,5.447,11.419,11.109,19.164,17.666,1.942,1.644,3.951,3.345,6.027,5.121a2.249,2.249,0,0,0,2.929,0c2.074-1.779,4.084-3.48,6.027-5.121,7.745-6.557,14.434-12.218,19.163-17.666C66.509,30.507,69,24.946,69,19.16A19.931,19.931,0,0,0,64.047,5.761Zm-6.288,27.96c-4.5,5.186-11.07,10.744-18.675,17.181q-2.234,1.887-4.582,3.891-2.35-2.005-4.582-3.891c-7.6-6.437-14.171-11.995-18.674-17.181-4.664-5.372-6.739-9.863-6.739-14.555,0-8.356,5.8-14.66,13.5-14.66,4.2,0,7.86,1.946,10.887,5.784a23.557,23.557,0,0,1,3.481,6.186A2.251,2.251,0,0,0,34.5,18h0a2.256,2.256,0,0,0,2.131-1.527,23.518,23.518,0,0,1,3.482-6.187C43.14,6.446,46.8,4.5,51,4.5c7.7,0,13.5,6.3,13.5,14.66C64.5,23.854,62.422,28.349,57.759,33.721Z"/>
</svg>
