<svg xmlns="http://www.w3.org/2000/svg" width="34" height="34" viewBox="0 0 34 34" >
	<path id="fileclipper" data-name="fileclipper" d="M3.8,30.1C2,28.3,1.1,26,1.1,23.3c0-2.6,0.9-4.9,2.8-6.8L16.9,3.1C18.4,1.7,20,1,22,1c2,0,3.6,0.7,5,2.1
		c1.4,1.4,2.1,3.1,2.1,5.1c0,2-0.7,3.7-2.1,5L15.6,24.9c-0.9,1-2,1.4-3.4,1.4c-1.3,0-2.5-0.5-3.4-1.5c-0.9-0.9-1.3-2-1.3-3.3
		c0-1.3,0.5-2.4,1.4-3.3L17.9,9c0.5-0.5,1-0.5,1.4,0l1.4,1.4c0.5,0.5,0.5,1,0,1.4l-9,9.2c-0.4,0.4-0.4,0.8,0,1.1
		c0.3,0.3,0.6,0.3,0.9,0l11.4-11.6c0.6-0.7,0.9-1.4,0.9-2.3s-0.3-1.6-0.9-2.3C23.5,5.3,22.8,5,22,5c-0.8,0-1.6,0.3-2.2,0.9L6.7,19.3
		c-1.1,1.1-1.6,2.5-1.6,4s0.5,2.9,1.6,4C7.7,28.4,9,29,10.5,29s2.8-0.5,3.8-1.6l10.8-11c0.5-0.5,1-0.5,1.4,0l1.4,1.4
		c0.5,0.5,0.5,0.9,0,1.4l-10.8,11c-1.9,1.9-4.1,2.8-6.8,2.8S5.6,32,3.8,30.1z"/>
</svg>
