<svg xmlns="http://www.w3.org/2000/svg" width="61.248" height="61.248" viewBox="0 0 61.248 61.248">
  <path id="Forma_1" data-name="Forma 1" d="M30.623,61.248A30.632,30.632,0,0,1,18.7,2.407a30.632,30.632,0,0,1,23.84,56.435A30.428,30.428,0,0,1,30.623,61.248Zm0-56.14A25.517,25.517,0,0,0,12.582,48.668a25.514,25.514,0,1,0,36.08-36.083A25.339,25.339,0,0,0,30.622,5.108ZM27.1,41.438a1.529,1.529,0,0,1-1.534-1.532V21.416a1.543,1.543,0,0,1,.838-1.364,1.516,1.516,0,0,1,.694-.168,1.535,1.535,0,0,1,.906.295l12.718,9.248a1.52,1.52,0,0,1,0,2.474L28.009,41.141A1.556,1.556,0,0,1,27.1,41.438Z" fill="#f61b40"/>
</svg>
