<svg xmlns="http://www.w3.org/2000/svg" width="68.893" height="51.585" viewBox="0 0 68.893 51.585">
      <path id="Path_417" data-name="Path 417" d="M110.495,61.059H63.208a2.148,2.148,0,0,0-2.149,2.149v47.287a2.148,2.148,0,0,0,2.149,2.149h47.287a2.148,2.148,0,0,0,2.149-2.149V63.208A2.148,2.148,0,0,0,110.495,61.059Zm-2.149,47.287H65.358V65.358h42.988Z" transform="translate(-52.461 -61.059)" fill="#e9b356"/>
      <path id="Path_418" data-name="Path 418" d="M184.284,178.175a2.149,2.149,0,0,0,2.181-.059l17.2-10.751a2.149,2.149,0,0,0,0-3.644l-17.2-10.743a2.149,2.149,0,0,0-3.289,1.822v21.494A2.152,2.152,0,0,0,184.284,178.175Zm3.191-19.5,10.99,6.866-10.99,6.872Z" transform="translate(-157.383 -139.755)" fill="#e9b356"/>
      <path id="path-1_42_" d="M457.941,91.588h4.3v42.988h-4.3Z" transform="translate(-393.347 -86.867)" fill="#e9b356"/>
      <path id="path-1_41_" d="M0,91.588H4.3v42.988H0Z" transform="translate(0 -86.867)" fill="#e9b356"/>
</svg>
