<svg xmlns="http://www.w3.org/2000/svg" width="53" height="56" viewBox="0 0 53 56">
  <path id="Forma_1_copy_4-2" data-name="Forma 1 copy 4" d="M50.48,55H2.522A2.417,2.417,0,0,1,0,52.71V2.291A2.417,2.417,0,0,1,2.522,0H32.8a2.7,2.7,0,0,1,1.7.584L52.16,15.031a2.217,2.217,0,0,1,.84,1.7V52.71A2.416,2.416,0,0,1,50.48,55ZM5.056,4.579v45.84h42.9V21.483H32.324a2.417,2.417,0,0,1-2.522-2.29V4.579ZM34.844,7.037V16.9H46.909L34.845,7.037Zm1.966,36.221H16.189a2.3,2.3,0,1,1,0-4.577H36.811a2.3,2.3,0,1,1,0,4.577Zm0-11.179H16.189a2.3,2.3,0,1,1,0-4.579H36.811a2.3,2.3,0,1,1,0,4.579Z" fill="#2476f5"/>
</svg>
