<svg xmlns="http://www.w3.org/2000/svg" width="54.411" height="60" viewBox="0 0 54.411 60">
  <defs>
    <style>
      .cls-1 {
        fill: #fff;
      }
    </style>
  </defs>
  <g id="sfsdfasafAsset_1" data-name="sfsdfasafAsset 1" transform="translate(0 -0.001)">
    <path id="Path_20" data-name="Path 20" class="cls-1" d="M53.672,22.688,28.668.556a2.205,2.205,0,0,0-2.924,0l-25,22.132A2.209,2.209,0,0,0,0,24.34V57.8A2.207,2.207,0,0,0,2.205,60h50A2.205,2.205,0,0,0,54.411,57.8V24.34a2.205,2.205,0,0,0-.739-1.652ZM50,55.589H4.414V25.333L27.206,5.157,50,25.333Z" transform="translate(0 0)"/>
    <path id="Path_21" data-name="Path 21" class="cls-1" d="M167.054,308.08H152.2a2.207,2.207,0,0,0-2.2,2.205v19.486h4.412V312.492h10.436v17.279h4.412V310.285a2.205,2.205,0,0,0-2.205-2.205Z" transform="translate(-132.422 -271.976)"/>
  </g>
</svg>
