<svg xmlns="http://www.w3.org/2000/svg" width="44" height="43.999" viewBox="0 0 44 43.999">
  <path id="_copy" data-name="? copy" d="M933.716,2580a1.5,1.5,0,0,1-1.093-.47l-8.712-9.079h-18.2a7.892,7.892,0,0,1-7.714-8.042v-18.366a7.892,7.892,0,0,1,7.714-8.042h28.572a7.892,7.892,0,0,1,7.714,8.042v18.366a7.951,7.951,0,0,1-6.743,7.979v8a1.6,1.6,0,0,1-.953,1.486A1.473,1.473,0,0,1,933.716,2580Zm-27.532-40.268a4.586,4.586,0,0,0-4.477,4.677v17.813a4.586,4.586,0,0,0,4.477,4.678H924.4a1.445,1.445,0,0,1,1.053.456l6.315,6.6v-5.5a1.528,1.528,0,0,1,1.494-1.557h.552a4.585,4.585,0,0,0,4.475-4.678v-17.813a4.585,4.585,0,0,0-4.475-4.677Zm13.538,23.543a1.936,1.936,0,0,1-1.341-.52,1.866,1.866,0,0,1-.572-1.454,1.9,1.9,0,0,1,.554-1.4,1.833,1.833,0,0,1,1.359-.565,1.79,1.79,0,0,1,1.339.565,1.964,1.964,0,0,1,.541,1.4,1.871,1.871,0,0,1-1.88,1.975Zm-.138-5.135a1.5,1.5,0,0,1-1.1-.449,1.809,1.809,0,0,1-.449-1.33,5.1,5.1,0,0,1,.33-1.917,4.858,4.858,0,0,1,.868-1.423,20.225,20.225,0,0,1,1.463-1.455c.5-.459.907-.844,1.166-1.114a3.845,3.845,0,0,0,.6-.837,2.106,2.106,0,0,0,.246-1,2.389,2.389,0,0,0-.75-1.777,2.679,2.679,0,0,0-1.936-.725,2.623,2.623,0,0,0-2.043.731,5.978,5.978,0,0,0-1.109,2.155c-.284.987-.831,1.488-1.626,1.488a1.569,1.569,0,0,1-1.191-.519,1.636,1.636,0,0,1-.485-1.127,4.949,4.949,0,0,1,.768-2.537,6.062,6.062,0,0,1,2.244-2.126,6.855,6.855,0,0,1,3.443-.845,7.1,7.1,0,0,1,3.227.706,5.313,5.313,0,0,1,2.163,1.916,4.877,4.877,0,0,1,.762,2.635,4.267,4.267,0,0,1-.433,1.964,6.1,6.1,0,0,1-1.035,1.455c-.381.39-1.064,1.045-2.148,2.061a8.072,8.072,0,0,0-.687.718,2.844,2.844,0,0,0-.386.565,2.738,2.738,0,0,0-.2.515c-.045.161-.109.439-.208.9A1.428,1.428,0,0,1,919.584,2558.139Z" transform="translate(-898 -2535.999)"/>
</svg>
