<svg id="lock" xmlns="http://www.w3.org/2000/svg" width="35.047" height="43.98" viewBox="0 0 35.047 43.98">
  <g id="Group_57" data-name="Group 57" transform="translate(0)">
    <g id="Group_56" data-name="Group 56">
      <path id="Path_414" data-name="Path 414" d="M81.893,16.149H78.8V9.086a9.279,9.279,0,0,0-18.554,0v7.064H57.154A5.16,5.16,0,0,0,52,21.3V38.827a5.16,5.16,0,0,0,5.154,5.154H81.893a5.16,5.16,0,0,0,5.154-5.154V21.3A5.16,5.16,0,0,0,81.893,16.149ZM63.679,9.086a5.844,5.844,0,0,1,11.682,0v7.064H63.679ZM83.611,38.827a1.72,1.72,0,0,1-1.718,1.718H57.154a1.72,1.72,0,0,1-1.718-1.718V21.3a1.72,1.72,0,0,1,1.718-1.718H81.893A1.72,1.72,0,0,1,83.611,21.3Z" transform="translate(-52)"/>
    </g>
  </g>
  <g id="Group_59" data-name="Group 59" transform="translate(14.345 24.567)">
    <g id="Group_58" data-name="Group 58" transform="translate(0)">
      <path id="Path_415" data-name="Path 415" d="M222.178,286a3.178,3.178,0,0,0-1.721,5.85v3.771a1.718,1.718,0,0,0,3.436,0v-3.767A3.178,3.178,0,0,0,222.178,286Z" transform="translate(-219 -286)"/>
    </g>
  </g>
</svg>
