<svg xmlns="http://www.w3.org/2000/svg" width="41.98" height="41.98" viewBox="0 0 41.98 41.98">
  <path id="Forma_1" data-name="Forma 1" d="M921,2159.99a20.924,20.924,0,1,1,8.171-1.649A20.858,20.858,0,0,1,921,2159.99Zm0-38.479a17.51,17.51,0,1,0,12.365,5.125A17.37,17.37,0,0,0,921,2121.511Zm-2.411,24.9a1.062,1.062,0,0,1-.477-.114,1.046,1.046,0,0,1-.574-.938v-12.672a1.052,1.052,0,0,1,1.671-.85l8.717,6.339a1.043,1.043,0,0,1,0,1.7l-8.717,6.333A1.068,1.068,0,0,1,918.588,2146.413Z" transform="translate(-900.01 -2118.01)"/>
</svg>
