<svg xmlns="http://www.w3.org/2000/svg" width="35.999" height="38" viewBox="0 0 35.999 38">
  <path id="Forma_1_copy_4" data-name="Forma 1 copy 4" d="M938.287,2366H905.712a1.653,1.653,0,0,1-1.713-1.582v-34.834a1.654,1.654,0,0,1,1.713-1.583h20.569a1.808,1.808,0,0,1,1.152.4l12,9.981a1.543,1.543,0,0,1,.571,1.178v24.855A1.653,1.653,0,0,1,938.287,2366Zm-30.853-34.837v31.672h29.14v-19.992H925.955a1.654,1.654,0,0,1-1.713-1.583v-10.1Zm20.233,1.7v6.817h8.195l-8.194-6.817ZM929,2357.888H915a1.587,1.587,0,1,1,0-3.164H929a1.587,1.587,0,1,1,0,3.164Zm0-7.725H915a1.587,1.587,0,1,1,0-3.164H929a1.587,1.587,0,1,1,0,3.164Z" transform="translate(-904 -2328)"/>
</svg>
