<svg id="lock" xmlns="http://www.w3.org/2000/svg" width="97.211" height="121.991" viewBox="0 0 97.211 121.991">
  <g id="Group_57" data-name="Group 57" transform="translate(0)">
    <g id="Group_56" data-name="Group 56">
      <path id="Path_414" data-name="Path 414" d="M134.915,44.793h-8.586V25.2c0-13.9-11.544-25.2-25.732-25.2S74.864,11.305,74.864,25.2V44.793H66.3A14.312,14.312,0,0,0,52,59.089v48.606a14.312,14.312,0,0,0,14.3,14.3h68.62a14.312,14.312,0,0,0,14.3-14.3V59.089A14.312,14.312,0,0,0,134.915,44.793ZM84.395,25.2c0-8.641,7.268-15.671,16.2-15.671s16.2,7.03,16.2,15.671V44.793h-32.4Zm55.286,82.494a4.771,4.771,0,0,1-4.765,4.765H66.3a4.771,4.771,0,0,1-4.765-4.765V59.089A4.771,4.771,0,0,1,66.3,54.324h68.62a4.771,4.771,0,0,1,4.765,4.765Z" transform="translate(-52)" fill="#17d292"/>
    </g>
  </g>
  <g id="Group_59" data-name="Group 59" transform="translate(39.79 68.143)">
    <g id="Group_58" data-name="Group 58" transform="translate(0)">
      <path id="Path_415" data-name="Path 415" d="M227.816,286a8.815,8.815,0,0,0-4.774,16.225v10.46a4.765,4.765,0,0,0,9.531,0V302.236A8.815,8.815,0,0,0,227.816,286Z" transform="translate(-219 -286)" fill="#17d292"/>
    </g>
  </g>
</svg>
