<svg xmlns="http://www.w3.org/2000/svg" width="39.602" height="39.47" viewBox="0 0 39.602 39.47">
  <g id="logout_1_" data-name="logout (1)" transform="translate(0 -0.85)">
    <g id="Group_52" data-name="Group 52" transform="translate(0 0.85)">
      <g id="Group_51" data-name="Group 51">
        <path id="Path_412" data-name="Path 412" d="M19.735,37.031H4.934a1.645,1.645,0,0,1-1.645-1.645V5.784A1.645,1.645,0,0,1,4.934,4.139h14.8a1.645,1.645,0,0,0,0-3.289H4.934A4.94,4.94,0,0,0,0,5.784v29.6A4.94,4.94,0,0,0,4.934,40.32h14.8a1.645,1.645,0,1,0,0-3.289Z" transform="translate(0 -0.85)" fill="#f31515"/>
      </g>
    </g>
    <g id="Group_54" data-name="Group 54" transform="translate(13.157 9.073)">
      <g id="Group_53" data-name="Group 53">
        <path id="Path_413" data-name="Path 413" d="M196.055,117.506l-10-9.868a1.644,1.644,0,1,0-2.309,2.342l7.146,7.052H171.745a1.645,1.645,0,0,0,0,3.289h19.148l-7.146,7.052a1.644,1.644,0,1,0,2.309,2.342l10-9.868a1.644,1.644,0,0,0,0-2.342Z" transform="translate(-170.1 -107.165)" fill="#f31515"/>
      </g>
    </g>
  </g>
</svg>
