<svg xmlns="http://www.w3.org/2000/svg" width="260.508" height="233.799" viewBox="0 0 260.508 233.799">
    <path id="Path_27" data-name="Path 27" d="M233.373.43H27.137C12.174.43,0,12.348,0,27V166.265c0,14.037,12.174,25.454,27.137,25.454H95.388L83.084,223.6H70.554a5.315,5.315,0,1,0,0,10.627h119.4a5.315,5.315,0,1,0,0-10.627H177.426l-12.3-31.883h68.251c14.961,0,27.134-11.417,27.134-25.454V27c0-14.65-12.174-26.568-27.134-26.568ZM165.818,223.6H94.692l12.3-31.883h46.524Zm83.835-57.337c0,8.175-7.3,14.827-16.28,14.827H27.136c-8.978,0-16.282-6.652-16.282-14.827V149.211h238.8Zm0-27.681H10.854V27A16.133,16.133,0,0,1,27.137,11.057H233.373A16.131,16.131,0,0,1,249.653,27Zm0,0" fill="#dddfe3"/>
    <path id="Path_28" data-name="Path 28" d="M198.679,288.069h26.708a6.677,6.677,0,0,0,0-13.354H198.679a6.677,6.677,0,1,0,0,13.354Zm0,0" transform="translate(-81.778 -116.825)" fill="#dddfe3"/>
</svg>
