<svg xmlns="http://www.w3.org/2000/svg" width="31.146" height="37" viewBox="0 0 31.146 37">
  <path id="xzcvzxcvAsset_1" data-name="xzcvzxcvAsset 1" d="M5.781,28.328H25.365a5.788,5.788,0,0,0,5.781-5.781V5.781A5.788,5.788,0,0,0,25.365,0H5.781A5.788,5.788,0,0,0,0,5.781V31.219A5.788,5.788,0,0,0,5.781,37H25.365a5.788,5.788,0,0,0,5.781-5.781,1.445,1.445,0,0,0-2.891,0,2.894,2.894,0,0,1-2.891,2.891H5.781a2.891,2.891,0,0,1,0-5.781ZM2.891,5.781A2.894,2.894,0,0,1,5.781,2.891H25.365a2.894,2.894,0,0,1,2.891,2.891V22.547a2.894,2.894,0,0,1-2.891,2.891H5.781a5.749,5.749,0,0,0-2.891.775ZM8.744,9.756a1.445,1.445,0,0,1,1.445-1.445h10.84a1.445,1.445,0,1,1,0,2.891H10.189A1.445,1.445,0,0,1,8.744,9.756Z" fill="#fff"/>
</svg>
