<svg xmlns="http://www.w3.org/2000/svg" width="34.461" height="38" viewBox="0 0 34.461 38">
  <g id="sfsdfasafAsset_1" data-name="sfsdfasafAsset 1" transform="translate(0 -0.001)">
    <path id="Path_20" data-name="Path 20" d="M33.992,14.369,18.156.352a1.4,1.4,0,0,0-1.852,0L.471,14.369A1.4,1.4,0,0,0,0,15.416V36.6A1.4,1.4,0,0,0,1.4,38H33.064a1.4,1.4,0,0,0,1.4-1.4V15.416a1.4,1.4,0,0,0-.468-1.046ZM31.667,35.207H2.8V16.044L17.231,3.267,31.667,16.044Z" transform="translate(0 0)" fill="#195ec8"/>
    <path id="Path_21" data-name="Path 21" d="M160.8,308.08h-9.406a1.4,1.4,0,0,0-1.395,1.4v12.341h2.794V310.874H159.4v10.944H162.2V309.477a1.4,1.4,0,0,0-1.4-1.4Z" transform="translate(-138.867 -285.213)" fill="#195ec8"/>
  </g>
</svg>
