<svg xmlns="http://www.w3.org/2000/svg" width="41.832" height="36.374" viewBox="0 0 41.832 36.374">
  <path id="v45235vAsset_1" data-name="v45235vAsset 1" d="M38.828,3.493A10.5,10.5,0,0,0,30.919,0a10.989,10.989,0,0,0-8.8,4.618,16.807,16.807,0,0,0-1.2,1.777,16.806,16.806,0,0,0-1.2-1.777A10.989,10.989,0,0,0,10.913,0,10.505,10.505,0,0,0,3,3.493a12.083,12.083,0,0,0-3,8.123c0,3.505,1.512,6.879,4.757,10.616,2.867,3.3,6.923,6.735,11.618,10.71,1.177,1,2.4,2.028,3.654,3.1a1.364,1.364,0,0,0,1.775,0c1.257-1.078,2.476-2.11,3.654-3.1,4.7-3.975,8.75-7.407,11.617-10.71,3.245-3.737,4.757-7.108,4.757-10.616A12.083,12.083,0,0,0,38.828,3.493Zm-3.812,16.95c-2.73,3.144-6.711,6.513-11.322,10.415Q22.339,32,20.916,33.217,19.491,32,18.138,30.858c-4.61-3.9-8.591-7.272-11.321-10.415-2.828-3.257-4.085-5.979-4.085-8.824,0-5.066,3.519-8.888,8.185-8.888a8.231,8.231,0,0,1,6.6,3.507,14.281,14.281,0,0,1,2.11,3.75,1.364,1.364,0,0,0,1.288.923h0a1.368,1.368,0,0,0,1.292-.926,14.257,14.257,0,0,1,2.111-3.751,8.228,8.228,0,0,1,6.6-3.507c4.666,0,8.185,3.82,8.185,8.888C39.1,14.461,37.842,17.186,35.015,20.443Z" fill="#fff"/>
</svg>
