<svg xmlns="http://www.w3.org/2000/svg" width="41.989" height="45.103" viewBox="0 0 41.989 45.103">
  <g id="bill" transform="translate(-86.439 0)">
    <g id="Group_144" data-name="Group 144" transform="translate(98.571 28.576)">
      <g id="Group_143" data-name="Group 143" transform="translate(0)">
        <path id="Path_470" data-name="Path 470" d="M160.758,324.386H144.871a.929.929,0,1,0,0,1.858h15.887a.929.929,0,1,0,0-1.858Z" transform="translate(-143.942 -324.386)" fill="#195ec8"/>
      </g>
    </g>
    <g id="Group_146" data-name="Group 146" transform="translate(98.571 33.534)">
      <g id="Group_145" data-name="Group 145" transform="translate(0)">
        <path id="Path_471" data-name="Path 471" d="M160.758,366.386H144.871a.929.929,0,1,0,0,1.858h15.887a.929.929,0,1,0,0-1.858Z" transform="translate(-143.942 -366.386)" fill="#195ec8"/>
      </g>
    </g>
    <g id="Group_148" data-name="Group 148" transform="translate(86.439 0)">
      <g id="Group_147" data-name="Group 147" transform="translate(0 0)">
        <path id="Path_472" data-name="Path 472" d="M127.589.064a1.786,1.786,0,0,0-1.5.245L123.169,2.5,120.246.319A1.835,1.835,0,0,0,118.31.262l-.082.057L115.3,2.5,112.381.309a1.836,1.836,0,0,0-1.935-.057l-.082.057L107.44,2.495,104.516.309a1.836,1.836,0,0,0-1.935-.057L102.5.309,99.575,2.495,96.651.309A1.836,1.836,0,0,0,94.716.253l-.082.057L91.71,2.495,88.773.309A1.78,1.78,0,0,0,87.29.064c-.522.141-.865.49-.851.876V44.16c-.014.509.576.933,1.318.942a1.656,1.656,0,0,0,1.029-.3l2.924-2.195,2.924,2.185a1.835,1.835,0,0,0,1.935.057l.082-.057,2.924-2.185,2.924,2.185a1.836,1.836,0,0,0,1.935.057l.082-.057,2.924-2.185,2.924,2.185a1.836,1.836,0,0,0,1.935.057l.082-.057,2.924-2.185,2.924,2.185a1.836,1.836,0,0,0,1.935.057l.082-.057,2.924-2.185,2.924,2.185a1.7,1.7,0,0,0,1.016.3,1.534,1.534,0,0,0,.467-.066c.522-.141.865-.49.851-.876V.931C128.454.554,128.11.206,127.589.064Zm-4.406,40.2a1.708,1.708,0,0,0-1.016.311l-2.924,2.195L116.32,40.58a1.836,1.836,0,0,0-1.935-.057l-.082.057-2.924,2.185-2.924-2.185a1.836,1.836,0,0,0-1.935-.057l-.082.057-2.924,2.185-2.924-2.185a1.836,1.836,0,0,0-1.935-.057l-.082.057-2.937,2.185-2.924-2.195A1.709,1.709,0,0,0,91.7,40.26a1.6,1.6,0,0,0-.988.311l-1.524,1.168V3.361L90.708,4.52a1.6,1.6,0,0,0,.988.311,1.709,1.709,0,0,0,1.016-.311l2.924-2.195,2.924,2.185a1.836,1.836,0,0,0,1.935.057l.082-.057L103.5,2.325l2.924,2.185a1.836,1.836,0,0,0,1.935.057l.082-.057,2.924-2.185,2.924,2.185a1.836,1.836,0,0,0,1.935.057l.082-.057,2.924-2.185,2.924,2.195a1.709,1.709,0,0,0,1.016.311,1.6,1.6,0,0,0,.988-.311l1.537-1.168V41.73l-1.524-1.159A1.6,1.6,0,0,0,123.183,40.26Z" transform="translate(-86.439 0)" fill="#195ec8"/>
      </g>
    </g>
    <g id="Group_150" data-name="Group 150" transform="translate(104.402 10.402)">
      <g id="Group_149" data-name="Group 149" transform="translate(0)">
        <path id="Path_473" data-name="Path 473" d="M212.686,96.341a3.023,3.023,0,0,0-2.88-2.1,1.171,1.171,0,1,1,1.161-1.171v.009a.929.929,0,1,0,1.858,0,3.023,3.023,0,0,0-2.1-2.88v-.585a.929.929,0,0,0-1.858,0V90.2a3.028,3.028,0,0,0,.929,5.909,1.171,1.171,0,0,1,.019,2.341c0-.009,0-.009-.009-.009a1.172,1.172,0,0,1-1.171-1.171.929.929,0,0,0-1.858,0,3.031,3.031,0,0,0,2.1,2.88v.595a.929.929,0,0,0,1.858,0v-.595A3.029,3.029,0,0,0,212.686,96.341Z" transform="translate(-206.771 -88.686)" fill="#195ec8"/>
      </g>
    </g>
  </g>
</svg>
