<svg xmlns="http://www.w3.org/2000/svg" width="34.081" height="39.576" viewBox="0 0 34.081 39.576">
  <path id="Shape_1_copy" data-name="Shape 1 copy" d="M5636.235,1109.549a1.655,1.655,0,0,1-.724-1.693l1.963-10.161a17.065,17.065,0,1,1,8.607,5.869l-8.008,5.916a1.711,1.711,0,0,1-.992.276A1.638,1.638,0,0,1,5636.235,1109.549Zm.9-22.333a13.763,13.763,0,0,0,3.327,8.972,1.644,1.644,0,0,1,.357,1.373l-1.314,6.807,5.329-3.926a1.618,1.618,0,0,1,1.518-.232,13.538,13.538,0,0,0,4.564.794,13.787,13.787,0,1,0-13.781-13.787Zm13.773,11.124a1.631,1.631,0,0,1-1.63-1.63v-.64a1.631,1.631,0,0,1,1.63-1.63h.01a1.63,1.63,0,0,1,1.63,1.63v.64a1.63,1.63,0,0,1-1.63,1.63Zm-1.627-7.074a6.88,6.88,0,0,1,3.355-5.839,3.252,3.252,0,0,0,1.539-2.822,3.309,3.309,0,0,0-3.212-3.211,3.254,3.254,0,0,0-3.3,3.259,1.634,1.634,0,0,1-3.269,0,6.52,6.52,0,0,1,1.943-4.65,6.438,6.438,0,0,1,4.575-1.886h.1a6.587,6.587,0,0,1,6.431,6.459,6.463,6.463,0,0,1-3.074,5.626,3.656,3.656,0,0,0-1.819,3.064,1.634,1.634,0,1,1-3.269,0Z" transform="translate(-5633.867 -1070.181)" fill="#fff"/>
</svg>
