<svg xmlns="http://www.w3.org/2000/svg" width="41.988" height="42" viewBox="0 0 41.988 42">
  <g id="xcvzxcvAsset_1" data-name="xcvzxcvAsset 1" transform="translate(0 0)">
    <path id="Path_1" data-name="Path 1" d="M143.648,133.61a10.039,10.039,0,1,0,10.038,10.039A10.039,10.039,0,0,0,143.648,133.61Zm0,17.568a7.529,7.529,0,1,1,7.528-7.529A7.529,7.529,0,0,1,143.648,151.178Z" transform="translate(-122.656 -122.651)" fill="#195ec8"/>
    <path id="Path_2" data-name="Path 2" d="M41.054,16.216l-3.227-.7a17.554,17.554,0,0,0-1.038-2.5l1.786-2.78a1.255,1.255,0,0,0-.168-1.566L33.379,3.636a1.255,1.255,0,0,0-1.566-.164L29.03,5.254a17.551,17.551,0,0,0-2.5-1.038l-.7-3.228A1.256,1.256,0,0,0,24.6,0H17.487a1.256,1.256,0,0,0-1.23.988l-.7,3.228a17.551,17.551,0,0,0-2.5,1.038l-2.78-1.786a1.255,1.255,0,0,0-1.566.164L3.682,8.66a1.255,1.255,0,0,0-.164,1.566L5.3,13.006a17.554,17.554,0,0,0-1.042,2.509l-3.227.7a1.256,1.256,0,0,0-.984,1.23v7.111a1.256,1.256,0,0,0,.984,1.222l3.227.7a17.553,17.553,0,0,0,1.038,2.5l-1.786,2.78a1.255,1.255,0,0,0,.164,1.566L8.705,38.36a1.255,1.255,0,0,0,1.566.168l2.78-1.786a17.551,17.551,0,0,0,2.5,1.038l.705,3.232a1.256,1.256,0,0,0,1.23.988H24.6a1.256,1.256,0,0,0,1.222-.988l.7-3.228a17.55,17.55,0,0,0,2.5-1.038l2.78,1.786a1.255,1.255,0,0,0,1.566-.168L38.4,33.336a1.255,1.255,0,0,0,.168-1.566l-1.786-2.78a17.553,17.553,0,0,0,1.038-2.5l3.231-.705a1.256,1.256,0,0,0,.984-1.226V17.442a1.256,1.256,0,0,0-.984-1.226Zm-1.526,7.325-2.959.643a1.257,1.257,0,0,0-.942.889,15.044,15.044,0,0,1-1.39,3.353,1.254,1.254,0,0,0,.038,1.3l1.64,2.549-3.6,3.6-2.549-1.64a1.254,1.254,0,0,0-1.3-.038,15.042,15.042,0,0,1-3.353,1.39,1.257,1.257,0,0,0-.889.942l-.646,2.963H18.5l-.643-2.959a1.257,1.257,0,0,0-.889-.942,15.042,15.042,0,0,1-3.353-1.39,1.254,1.254,0,0,0-1.3.038L9.77,35.872l-3.6-3.6,1.64-2.549a1.254,1.254,0,0,0,.038-1.3,15.083,15.083,0,0,1-1.394-3.353,1.256,1.256,0,0,0-.942-.889l-2.958-.645V18.455l2.959-.643a1.257,1.257,0,0,0,.942-.891,15.045,15.045,0,0,1,1.394-3.353,1.254,1.254,0,0,0-.038-1.3L6.173,9.724l3.6-3.6,2.549,1.64a1.254,1.254,0,0,0,1.3.038,15.042,15.042,0,0,1,3.353-1.394,1.257,1.257,0,0,0,.889-.942L18.5,2.51h5.085l.643,2.959a1.257,1.257,0,0,0,.891.942,15.042,15.042,0,0,1,3.353,1.394,1.254,1.254,0,0,0,1.3-.038l2.549-1.64,3.6,3.6-1.64,2.549a1.254,1.254,0,0,0-.038,1.3,15.083,15.083,0,0,1,1.39,3.353,1.256,1.256,0,0,0,.942.889l2.962.642Z" transform="translate(-0.05 0)" fill="#195ec8"/>
  </g>
</svg>
