<svg xmlns="http://www.w3.org/2000/svg" width="46.137" height="33.122" viewBox="0 0 46.137 33.122">
  <g id="Group_157" data-name="Group 157" transform="translate(-2988 10772.929)">
    <g id="Group_156" data-name="Group 156" transform="translate(2988 -10772.929)">
      <path id="path-1_41_" d="M0,91.588H3.549v23.893H0Z" transform="translate(0 -86.624)" fill="#195ec8"/>
      <path id="Path_476" data-name="Path 476" d="M95.224,65.059H68.833a1.773,1.773,0,0,0-1.774,1.774V96.407a1.773,1.773,0,0,0,1.774,1.774h26.39A1.773,1.773,0,0,0,97,96.407V66.833A1.773,1.773,0,0,0,95.224,65.059ZM93.449,94.633H70.608V68.608H93.449Z" transform="translate(-58.962 -65.059)" fill="#195ec8"/>
      <path id="path-1_42_" d="M457.941,91.588h3.586v23.893h-3.586Z" transform="translate(-415.389 -86.624)" fill="#195ec8"/>
    </g>
  </g>
</svg>
