<svg xmlns="http://www.w3.org/2000/svg" width="44.754" height="33.459" viewBox="0 0 44.754 33.459">
  <path id="video-camera_1_" data-name="video-camera (1)" d="M62.933,6.671a1.677,1.677,0,0,0-1.659-.03l-9.234,3.94v-.2A8.389,8.389,0,0,0,43.661,2H27.381A8.389,8.389,0,0,0,19,10.38v16.7a8.389,8.389,0,0,0,8.38,8.38h16.28a8.389,8.389,0,0,0,8.38-8.38v-.093l9.235,3.94a1.676,1.676,0,0,0,2.479-1.471V8.112a1.675,1.675,0,0,0-.821-1.441ZM48.687,27.08a5.033,5.033,0,0,1-5.028,5.028H27.381a5.034,5.034,0,0,1-5.028-5.028V10.38a5.034,5.034,0,0,1,5.028-5.028h16.28a5.034,5.034,0,0,1,5.028,5.028ZM60.4,26.631l-8.362-3.464V14.4L60.4,10.937Zm0,0" transform="translate(-19.001 -2)" fill="#195ec8"/>
</svg>
